PathFileType	4	(X/Y/Z)	..\data\2014050\dynamic\2014050_C5_05.trc
DataRate	CameraRate	NumFrames	NumMarkers	Units	OrigDataRate	OrigDataStartFrame	OrigNumFrames
100.000000	100.000000	4	52	mm	100.000000	53	142
Frame#	Time	L_IAS			L_IPS			R_IPS			R_IAS			L_FTC			L_FLE			L_FME			L_FAX			L_TTC			L_FAL			L_TAM			L_FCC			L_FM1			L_FM2			L_FM5			R_FTC			R_FLE			R_FME			R_FAX			R_TTC			R_FAL			R_TAM			R_FCC			R_FM1			R_FM2			R_FM5			CV7			TV10			SXS			SJN			L_SIA			L_SRS			L_SAA			L_SAE			L_HLE			L_HME			L_UOA			L_RSP			L_UHE			L_HM2			L_HM5			R_SIA			R_SRS			R_SAA			R_SAE			R_HLE			R_HME			R_UOA			R_RSP			R_UHE			R_HM2			R_HM5			
		X1	Y1	Z1	X2	Y2	Z2	X3	Y3	Z3	X4	Y4	Z4	X5	Y5	Z5	X6	Y6	Z6	X7	Y7	Z7	X8	Y8	Z8	X9	Y9	Z9	X10	Y10	Z10	X11	Y11	Z11	X12	Y12	Z12	X13	Y13	Z13	X14	Y14	Z14	X15	Y15	Z15	X16	Y16	Z16	X17	Y17	Z17	X18	Y18	Z18	X19	Y19	Z19	X20	Y20	Z20	X21	Y21	Z21	X22	Y22	Z22	X23	Y23	Z23	X24	Y24	Z24	X25	Y25	Z25	X26	Y26	Z26	X27	Y27	Z27	X28	Y28	Z28	X29	Y29	Z29	X30	Y30	Z30	X31	Y31	Z31	X32	Y32	Z32	X33	Y33	Z33	X34	Y34	Z34	X35	Y35	Z35	X36	Y36	Z36	X37	Y37	Z37	X38	Y38	Z38	X39	Y39	Z39	X40	Y40	Z40	X41	Y41	Z41	X42	Y42	Z42	X43	Y43	Z43	X44	Y44	Z44	X45	Y45	Z45	X46	Y46	Z46	X47	Y47	Z47	X48	Y48	Z48	X49	Y49	Z49	X50	Y50	Z50	X51	Y51	Z51	X52	Y52	Z52	

54	0.53	646.3372192382814	859.1683349609377	-320.6812133789063	454.6373901367189	884.6643066406252	-231.4674835205079	470.4395751953126	875.325622558594	-127.7720642089844	671.3598022460939	870.3692626953127	-109.6314773559571	554.5551147460939	781.4541015625002	-395.0767211914064	441.438934326172	418.7447509765626	-347.4266357421876	471.672332763672	407.0923461914064	-215.8606109619141	386.0171203613282	380.3940124511719	-346.2357177734376	436.347381591797	336.6527099609376	-298.5236816406251	195.3215332031251	138.0694580078125	-292.1907653808594	213.4183349609376	134.528793334961	-207.8569641113282	135.8737945556641	135.9267883300782	-234.9005432128907	252.4504852294922	24.89894104003907	-197.9917755126954	265.8900756835938	30.55313301086426	-252.1098632812501	220.3141021728516	23.68588256835938	-301.3812561035157	623.7066040039064	768.5152587890627	-6.865486145019533	763.9683227539064	435.2805175781251	-65.79110717773439	769.6987915039065	433.4645996093751	-205.1989135742188	753.4004516601564	374.5821228027344	-63.8241424560547	819.8399658203127	388.6548156738282	-122.1053695678711	822.0826416015627	58.99287033081056	-104.0689544677735	833.2561645507815	81.02454376220705	-192.0438690185547	787.1098632812502	12.6428861618042	-152.5774536132813	959.0135498046877	51.90575027465822	-190.3848571777344	959.6072387695315	70.66342163085939	-136.1151123046875	930.609558105469	41.49583053588868	-90.9140090942383	535.1012573242189	1353.432006835938	-205.8262176513672	451.6586914062501	1133.122924804688	-210.8948974609376	670.9668579101564	1027.276489257813	-202.5850677490235	648.2890625000001	1260.260986328125	-203.6801300048829	458.2590637207032	1176.860961914063	-303.8209228515626	497.7896423339845	1292.317138671875	-307.4147644042969	555.0688476562501	1301.573608398438	-367.4586791992188	604.3263549804689	1305.795532226563	-367.9785766601563	716.6710815429689	1056.468383789063	-475.7623291015626	678.7172241210939	999.9895019531252	-416.6448669433595	714.2139892578126	995.521423339844	-463.5928955078126	931.9582519531252	987.659362792969	-392.9454650878907	915.3861083984377	945.542663574219	-446.0703430175782	1009.422668457031	977.177429199219	-385.8460693359376	967.4089965820315	902.9722900390627	-433.5978393554689	441.8151245117189	1182.456665039063	-139.3536071777344	493.262664794922	1284.39599609375	-121.1124114990235	538.3236083984376	1294.630004882813	-50.94931030273439	591.7659912109376	1294.715454101563	-34.46098709106446	421.9952087402345	1033.786010742188	22.82349014282227	383.5443725585938	1050.0126953125	-43.90801620483399	379.3597106933594	1030.293212890625	5.02059555053711	355.9206237792969	809.3989257812502	7.958579063415529	305.1528625488282	847.7673950195315	44.00492477416993	315.2372131347657	734.4057006835939	0.1430008560419083	250.703353881836	795.6189575195315	38.38239669799805	
55	0.54	664.0922241210939	858.586853027344	-319.2226257324219	472.4409790039064	883.6626586914065	-232.365707397461	487.8803710937501	876.2808227539065	-127.8769073486328	688.9905395507814	871.6604003906252	-109.1158981323242	573.8053588867189	779.5064697265627	-394.4934997558595	465.7246704101564	415.8132629394532	-349.6760559082032	496.7225036621095	402.8360290527345	-218.5771484375001	409.3403320312501	379.0929565429688	-348.6142272949219	458.8020629882814	333.8562927246094	-301.7991333007813	208.8169403076172	146.4883117675782	-293.5433044433594	227.7800598144532	140.9589385986328	-209.8202209472657	151.110092163086	148.89990234375	-235.1755676269532	256.1561889648438	28.01435470581055	-199.2481231689454	269.5643615722657	32.3557243347168	-253.0585021972657	224.782455444336	29.9642448425293	-302.0874328613282	642.3966064453126	771.375183105469	-5.645718574523927	780.227966308594	435.7568664550782	-65.12287902832033	786.8231201171877	434.7264709472657	-203.8260345458985	768.5798950195315	375.1587524414063	-62.95290756225587	834.301696777344	387.5743408203126	-121.745346069336	824.917663574219	57.64894866943361	-104.0388870239258	836.3701171875002	79.05312347412111	-192.3448333740235	787.0166015625002	12.98398971557618	-152.4339447021485	961.584411621094	44.3298568725586	-190.3619842529297	963.2249755859377	63.36208724975587	-135.9048919677735	932.3216552734377	35.48837661743165	-90.60005950927736	552.2919311523439	1353.766723632813	-204.1901550292969	468.935760498047	1133.332763671875	-209.9999389648438	688.2890014648439	1027.79833984375	-201.5386199951172	665.4594726562501	1260.8115234375	-202.4767150878907	474.9312133789064	1177.698120117188	-302.7169189453126	514.6125488281251	1293.002075195313	-305.8004760742188	571.8107910156251	1302.2802734375	-365.9053344726563	621.1271972656251	1306.315063476563	-366.5412597656251	731.2648315429689	1055.943603515625	-474.7469482421876	693.1743774414064	1000.103759765625	-415.7942199707032	728.2971191406251	995.2608642578127	-463.0487670898439	946.1794433593752	984.889343261719	-393.0802307128907	928.758728027344	942.822204589844	-445.9906616210939	1023.480224609375	973.266296386719	-386.3755187988282	980.1240234375002	899.5307617187502	-433.5558471679689	459.7012329101564	1182.325073242188	-137.7292938232422	510.8018798828126	1284.402709960938	-119.3941802978516	556.0917358398439	1294.308227539063	-49.24108505249025	609.7604370117189	1294.035034179688	-33.55238723754884	441.5728454589845	1032.82421875	24.34840202331544	402.719207763672	1048.931274414063	-42.32920074462891	398.7034301757814	1029.115600585938	6.615852355957033	376.6404113769532	808.0260009765627	9.90543842315674	325.6332702636719	846.2263183593752	45.88437271118165	336.3412170410157	733.0693359375001	2.166548490524292	271.4067993164063	793.809265136719	40.0360450744629	
56	0.55	681.6206054687501	858.1213378906252	-317.7034912109376	490.0021057128907	882.6538085937502	-233.5850067138672	505.0206909179689	877.4439697265627	-128.1772003173828	706.3355712890626	873.197204589844	-108.5459213256836	593.2711791992189	777.510925292969	-393.9647827148439	491.4714965820314	412.642547607422	-351.8709716796876	523.2666625976564	398.2951965332032	-221.3017120361329	434.2734680175782	377.5159301757813	-350.8829040527344	482.8118896484376	331.0049743652344	-304.9064636230469	224.3222045898438	155.1907043457032	-294.4729614257813	244.3078155517579	147.4690093994141	-211.4479522705079	168.6076202392578	161.789047241211	-234.8551788330079	262.2818908691407	31.69688987731934	-201.2969665527344	275.4539184570313	34.94261169433594	-254.7364654541016	231.4803924560547	37.50561523437501	-303.2135314941407	660.7838134765626	774.5125732421877	-4.363728046417237	795.4373779296877	436.1543579101564	-64.33067321777345	802.969177246094	435.8943786621095	-202.3378448486329	782.8228759765627	375.7390136718751	-61.91163253784181	847.8270263671877	386.4886474609376	-121.181022644043	826.9439086914065	56.5694046020508	-103.886589050293	838.875671386719	77.48552703857423	-192.4417877197266	786.445983886719	13.40807247161866	-152.2241363525391	963.3411254882815	37.24963378906251	-190.1276550292969	965.9667968750002	56.56549453735353	-135.494613647461	933.257263183594	30.00387763977051	-89.94285583496095	569.5634765625001	1354.389404296875	-202.6835327148438	486.1053466796876	1133.86962890625	-209.1228790283204	705.4382934570314	1028.49365234375	-200.6761627197266	682.5985717773439	1261.551513671875	-201.4371185302735	491.4469604492189	1178.888793945313	-301.6515197753907	531.4477539062501	1293.984130859375	-304.2774047851563	588.5242919921876	1303.19775390625	-364.4918212890626	637.9074707031251	1306.959228515625	-365.3037414550782	745.0470581054689	1055.013549804688	-473.7441711425782	706.8066406250001	1000.093627929688	-414.8369445800782	741.3760375976564	994.7404785156252	-462.4835510253907	959.390319824219	980.7551879882815	-393.4610595703126	940.8850708007815	938.894226074219	-446.2110900878907	1036.467041015625	967.530212402344	-387.2041320800782	991.3635864257815	894.643493652344	-433.9256286621095	477.5831909179689	1182.527221679688	-136.0449371337891	528.3738403320314	1284.748046875	-117.7564239501953	573.9047851562501	1294.196655273438	-47.58922958374024	627.8934326171876	1293.580688476563	-32.76493072509766	462.0850830078126	1031.537109375	25.97125816345216	422.581268310547	1047.35888671875	-40.53836822509766	418.9324035644532	1027.437133789063	8.373206138610842	399.1535644531251	806.0787353515627	12.09537029266358	347.8291320800782	843.920593261719	47.96956634521485	359.7995910644532	730.9523315429689	5.054757118225099	294.1401977539063	790.9870605468752	42.26555252075196	
57	0.5600000000000001	698.8801879882814	857.8135986328127	-316.1846618652344	507.2742919921876	881.7232666015627	-234.9882049560547	521.8345947265626	878.7798461914065	-128.6037750244141	723.3602905273439	874.9379882812502	-107.9116973876953	612.8412475585939	775.5933837890627	-393.458953857422	518.5116577148439	409.4107971191407	-353.9545898437501	551.1252441406251	393.6791076660157	-223.9524536132813	460.6763305664064	375.7959594726563	-352.9785461425782	508.2780761718751	328.2401428222657	-307.7557067871094	241.9213409423829	163.9917144775391	-295.0018005371094	263.0270080566407	153.8985900878907	-212.7345123291016	188.3007202148438	174.1779174804688	-233.9998626708985	271.3335571289063	35.81983947753907	-204.2231140136719	284.0796508789063	38.31214141845704	-257.2378234863282	240.8803100585938	46.11132431030274	-304.8318176269532	678.7510986328126	777.772399902344	-3.044258832931519	809.4803466796877	436.4143981933595	-63.45642852783205	817.931091308594	436.8592224121095	-200.8182373046876	795.9949340820315	376.2580871582032	-60.762752532959	860.3338623046877	385.380340576172	-120.4628448486328	828.413757324219	55.7756690979004	-103.6615753173828	840.9846801757815	76.35417938232423	-192.3797149658204	785.7219238281252	13.89422702789307	-151.9813690185547	964.5178222656252	30.92395782470704	-189.7494659423828	968.051696777344	50.52840423583986	-134.9579620361328	933.7095336914065	25.24342727661134	-89.01576232910158	586.8705444335939	1355.28662109375	-201.3412322998047	503.1359863281251	1134.721313476563	-208.2654418945313	722.3878173828126	1029.336303710938	-200.0357360839844	699.6732788085939	1262.45166015625	-200.5865173339844	507.7949218750001	1180.382690429688	-300.6276245117188	548.2549438476564	1295.231201171875	-302.8775939941407	605.1680908203126	1304.304077148438	-363.2529296875001	654.6228027343751	1307.716674804688	-364.3020935058594	757.9971923828126	1053.716674804688	-472.7854919433595	719.5960693359376	999.9654541015627	-413.7899780273439	753.4432373046876	993.986755371094	-461.8982238769532	971.515808105469	975.3313598632815	-394.0489807128907	951.7327270507815	933.8613281250002	-446.7045288085939	1048.295166015625	960.0823974609377	-388.2703857421876	1001.095886230469	888.437683105469	-434.6795654296876	495.4059143066407	1183.065063476563	-134.3315124511719	545.9349975585939	1285.427734375	-116.2348098754883	591.7182617187501	1294.307861328125	-46.04509735107423	646.1159057617189	1293.449829101563	-32.05714797973634	483.4332885742189	1029.979614257813	27.67526435852051	443.0724487304689	1045.335815429688	-38.54426956176759	439.9772033691407	1025.313720703125	10.28157901763916	423.4092712402345	803.6502075195315	14.48120498657227	371.6730957031251	840.913024902344	50.20019149780275	385.5719299316407	728.1405639648439	8.687528610229494	318.8443603515626	787.2075805664065	44.97166061401368	
